<?xml version="1.0" encoding="UTF-8"?>
<level>
  <owner>Fistachka</owner>
  <repo>shapoklyak</repo>
  <version>v1.0.3</version>
  <next number="1" owner="Fistachka" repo="shapoklyak2"/>
  <readme>
    <ru>ab4c54cb15ce7bfe3eac9e98eb82023a3e5dcf92773187ece7916e9d6d4f0c2c</ru>
    <en>aa866d3c1340965ab94711a8808918827e829bc0d70c005a99b063cebd1560d5</en>
  </readme>
  <license>b1b99f5538d1fd3702219bff50c665196dfa42f6ee755c37fe41a6178d6bc6e5</license>
  <exercise number="1">
    <scale>minor</scale>
    <cadenceVariant>harmonic</cadenceVariant>
    <bpm>128</bpm>
    <lowestNote>86</lowestNote>
    <tonalities>10</tonalities>
    <video name="1.mp4" size="660256" type="video/mp4" volume="0.5">7ace2702afd52003a75b72036d8fdcafbabbf1423117521e1189a99d5b06ba78</video>
    <notes>
      <note number="1" values="5" ticks="580" durationTicks="41" ppq="96" velocity="0.674"/>
      <note number="2" values="6" ticks="630" durationTicks="83" ppq="96" velocity="0.807"/>
      <note number="3" values="4" ticks="719" durationTicks="44" ppq="96" velocity="0.699"/>
      <note number="4" values="5" ticks="767" durationTicks="57" ppq="96" velocity="0.772"/>
      <note number="5" values="3" ticks="1000" durationTicks="32" ppq="96" velocity="0.659"/>
      <note number="6" values="2" ticks="1035" durationTicks="43" ppq="96" velocity="0.812"/>
      <note number="7" values="1" ticks="1082" durationTicks="32" ppq="96" velocity="0.666"/>
    </notes>
  </exercise>
  <exercise number="2">
    <scale>minor</scale>
    <cadenceVariant>harmonic</cadenceVariant>
    <bpm>128</bpm>
    <lowestNote>86</lowestNote>
    <tonalities>10</tonalities>
    <video name="2.mp4" size="619036" type="video/mp4" volume="0.5">18acf9db9e78c90e58530380551d4c5f654ce2bd22930aad415361b8397e1863</video>
    <notes>
      <note number="1" values="5" ticks="145" durationTicks="41" ppq="96" velocity="0.689"/>
      <note number="2" values="6" ticks="192" durationTicks="93" ppq="96" velocity="0.75"/>
      <note number="3" values="4" ticks="292" durationTicks="91" ppq="96" velocity="0.659"/>
      <note number="4" values="5" ticks="384" durationTicks="94" ppq="96" velocity="0.772"/>
      <note number="5" values="3" ticks="482" durationTicks="94" ppq="96" velocity="0.634"/>
      <note number="6" values="2" ticks="576" durationTicks="184" ppq="96" velocity="0.8"/>
      <note number="7" values="4" ticks="774" durationTicks="144" ppq="96" velocity="0.629"/>
      <note number="8" values="1" ticks="408" durationTicks="96" ppq="96" velocity="0.629"/>
    </notes>
  </exercise>
  <exercise number="3">
    <scale>minor</scale>
    <cadenceVariant>harmonic</cadenceVariant>
    <bpm>128</bpm>
    <lowestNote>86</lowestNote>
    <tonalities>10</tonalities>
    <video name="3.mp4" size="738563" type="video/mp4" volume="0.5">36e8ae778030a9556b5706dacc0f18f33cd1a202ddd524249342b68a8760210a</video>
    <notes>
      <note number="1" values="5" ticks="500" durationTicks="41" ppq="96" velocity="0.685"/>
      <note number="2" values="6" ticks="549" durationTicks="81" ppq="96" velocity="0.748"/>
      <note number="3" values="4" ticks="646" durationTicks="45" ppq="96" velocity="0.654"/>
      <note number="4" values="5" ticks="693" durationTicks="94" ppq="96" velocity="0.772"/>
      <note number="5" values="3" ticks="789" durationTicks="49" ppq="96" velocity="0.622"/>
      <note number="6" values="4" ticks="835" durationTicks="94" ppq="96" velocity="0.63"/>
      <note number="7" values="2" ticks="933" durationTicks="184" ppq="96" velocity="0.795"/>
    </notes>
  </exercise>
  <exercise number="4">
    <scale>minor</scale>
    <cadenceVariant>harmonic</cadenceVariant>
    <bpm>128</bpm>
    <lowestNote>86</lowestNote>
    <tonalities>10</tonalities>
    <video name="4.mp4" size="751704" type="video/mp4" volume="0.5">7512edf5d672a3ea30b327c1d21ce9f0dda1449a8b84e7e4970d19ff3ae04fe2</video>
    <notes>
      <note number="1" values="5" ticks="665" durationTicks="41" ppq="96" velocity="0.669"/>
      <note number="2" values="6" ticks="713" durationTicks="83" ppq="96" velocity="0.803"/>
      <note number="3" values="4" ticks="809" durationTicks="44" ppq="96" velocity="0.693"/>
      <note number="4" values="5" ticks="860" durationTicks="96" ppq="96" velocity="0.8"/>
      <note number="5" values="3" ticks="337" durationTicks="21" ppq="96" velocity="0.629"/>
      <note number="6" values="3" ticks="362" durationTicks="42" ppq="96" velocity="0.795"/>
    </notes>
  </exercise>
  <exercise number="5">
    <scale>minor</scale>
    <cadenceVariant>harmonic</cadenceVariant>
    <bpm>128</bpm>
    <lowestNote>86</lowestNote>
    <tonalities>10</tonalities>
    <video name="5.mp4" size="207653" type="video/mp4" volume="0.5">61e5221c75fcd0432a3fb5774d497ba8b131919fe3c40590513ae0f0ff681672</video>
    <notes>
      <note number="1" values="5" ticks="117" durationTicks="41" ppq="96" velocity="0.685"/>
      <note number="2" values="6" ticks="164" durationTicks="93" ppq="96" velocity="0.748"/>
      <note number="3" values="4" ticks="306" durationTicks="49" ppq="96" velocity="0.654"/>
      <note number="4" values="5" ticks="357" durationTicks="94" ppq="96" velocity="0.772"/>
    </notes>
  </exercise>
  <exercise number="6">
    <scale>minor</scale>
    <cadenceVariant>harmonic</cadenceVariant>
    <bpm>128</bpm>
    <lowestNote>86</lowestNote>
    <tonalities>10</tonalities>
    <video name="6.mp4" size="550899" type="video/mp4" volume="0.5">973bd0d82a84e69e3bdc5efadfb59b0f646c3283a3204e4b08c7884f091d2e1a</video>
    <notes>
      <note number="1" values="5" ticks="393" durationTicks="47" ppq="96" velocity="0.8"/>
      <note number="2" values="6" ticks="440" durationTicks="141" ppq="96" velocity="0.8"/>
      <note number="3" values="5" ticks="581" durationTicks="35" ppq="96" velocity="0.8"/>
      <note number="4" values="5" ticks="632" durationTicks="96" ppq="96" velocity="0.8"/>
      <note number="5" values="2" ticks="260" durationTicks="36" ppq="96" velocity="0.611"/>
      <note number="6" values="4" ticks="307" durationTicks="69" ppq="96" velocity="0.787"/>
      <note number="7" values="3" ticks="387" durationTicks="27" ppq="96" velocity="0.604"/>
      <note number="8" values="2" ticks="428" durationTicks="30" ppq="96" velocity="0.656"/>
      <note number="9" values="1" ticks="470" durationTicks="22" ppq="96" velocity="0.609"/>
      <note number="10" values="1" ticks="509" durationTicks="67" ppq="96" velocity="0.757"/>
    </notes>
  </exercise>
  <exercise number="7">
    <scale>minor</scale>
    <cadenceVariant>harmonic</cadenceVariant>
    <bpm>128</bpm>
    <lowestNote>86</lowestNote>
    <tonalities>10</tonalities>
    <video name="7.mp4" size="484221" type="video/mp4" volume="0.5">e738d6bdc4b850eb46db43154060c9ddb3aacfd40bd1afd98345cfa3a2104741</video>
    <notes>
      <note number="1" values="5" ticks="148" durationTicks="41" ppq="96" velocity="0.669"/>
      <note number="2" values="6" ticks="198" durationTicks="83" ppq="96" velocity="0.803"/>
      <note number="3" values="5" ticks="340" durationTicks="32" ppq="96" velocity="0.693"/>
      <note number="4" values="5" ticks="390" durationTicks="43" ppq="96" velocity="0.772"/>
      <note number="5" values="2" ticks="494" durationTicks="44" ppq="96" velocity="0.654"/>
      <note number="6" values="1" ticks="542" durationTicks="197" ppq="96" velocity="0.811"/>
    </notes>
  </exercise>
  <exercise number="8">
    <scale>minor</scale>
    <cadenceVariant>harmonic</cadenceVariant>
    <bpm>128</bpm>
    <lowestNote>86</lowestNote>
    <tonalities>10</tonalities>
    <video name="8.mp4" size="610417" type="video/mp4" volume="0.5">dbdbf008235fe057ffd7fae2013b59a8e5c9435fa4f768f0f218a10adead14ab</video>
    <notes>
      <note number="1" values="5" ticks="148" durationTicks="41" ppq="96" velocity="0.669"/>
      <note number="2" values="6" ticks="198" durationTicks="83" ppq="96" velocity="0.803"/>
      <note number="3" values="5" ticks="340" durationTicks="32" ppq="96" velocity="0.693"/>
      <note number="4" values="5" ticks="390" durationTicks="43" ppq="96" velocity="0.772"/>
      <note number="5" values="2" ticks="494" durationTicks="44" ppq="96" velocity="0.654"/>
      <note number="6" values="1" ticks="542" durationTicks="197" ppq="96" velocity="0.811"/>
      <note number="7" values="4" ticks="381" durationTicks="23" ppq="96" velocity="0.586"/>
    </notes>
  </exercise>
  <exercise number="9">
    <scale>minor</scale>
    <cadenceVariant>harmonic</cadenceVariant>
    <bpm>128</bpm>
    <lowestNote>86</lowestNote>
    <tonalities>10</tonalities>
    <video name="9.mp4" size="583532" type="video/mp4" volume="0.5">5bacd6a34d690568448cff63f451904ca529069a12494d42cc8334aafabbef99</video>
    <notes>
      <note number="1" values="5" ticks="148" durationTicks="41" ppq="96" velocity="0.669"/>
      <note number="2" values="6" ticks="198" durationTicks="83" ppq="96" velocity="0.803"/>
      <note number="3" values="5" ticks="340" durationTicks="32" ppq="96" velocity="0.693"/>
      <note number="4" values="5" ticks="390" durationTicks="43" ppq="96" velocity="0.772"/>
      <note number="5" values="2" ticks="494" durationTicks="44" ppq="96" velocity="0.654"/>
      <note number="6" values="1" ticks="542" durationTicks="197" ppq="96" velocity="0.811"/>
    </notes>
  </exercise>
  <exercise number="10">
    <scale>minor</scale>
    <cadenceVariant>harmonic</cadenceVariant>
    <bpm>128</bpm>
    <lowestNote>86</lowestNote>
    <tonalities>10</tonalities>
    <video name="10.mp4" size="571059" type="video/mp4" volume="0.5">0c35619a1de8f39bb3768e42d1e0852fc277bc0bf43472ab229153d730e2bda8</video>
    <notes>
      <note number="1" values="5" ticks="148" durationTicks="41" ppq="96" velocity="0.669"/>
      <note number="2" values="6" ticks="198" durationTicks="83" ppq="96" velocity="0.803"/>
      <note number="3" values="5" ticks="340" durationTicks="32" ppq="96" velocity="0.693"/>
      <note number="4" values="5" ticks="390" durationTicks="43" ppq="96" velocity="0.772"/>
      <note number="5" values="2" ticks="494" durationTicks="44" ppq="96" velocity="0.654"/>
      <note number="6" values="1" ticks="542" durationTicks="197" ppq="96" velocity="0.811"/>
      <note number="7" values="4" ticks="381" durationTicks="23" ppq="96" velocity="0.586"/>
    </notes>
  </exercise>
  <exercise number="11">
    <scale>minor</scale>
    <cadenceVariant>harmonic</cadenceVariant>
    <bpm>128</bpm>
    <lowestNote>86</lowestNote>
    <tonalities>10</tonalities>
    <video name="11.mp4" size="599141" type="video/mp4" volume="0.5">aee4549ccd62288ad5dab2f7a384e8eb85b17ed5b40b85825350a4a1f0cec97f</video>
    <notes>
      <note number="1" values="5" ticks="148" durationTicks="41" ppq="96" velocity="0.669"/>
      <note number="2" values="6" ticks="198" durationTicks="83" ppq="96" velocity="0.803"/>
      <note number="3" values="5" ticks="340" durationTicks="32" ppq="96" velocity="0.693"/>
      <note number="4" values="5" ticks="390" durationTicks="43" ppq="96" velocity="0.772"/>
      <note number="5" values="2" ticks="494" durationTicks="44" ppq="96" velocity="0.654"/>
      <note number="6" values="1" ticks="542" durationTicks="197" ppq="96" velocity="0.811"/>
    </notes>
  </exercise>
</level>
